# xmcd
#
# Track frame offsets:
#	150
#	15710
#	26820
#	36725
#	51045
#	60655
#	74848
#	89600
#	98600
#	112475
#
# Disc length: 1620 seconds
#
# Revision: 0
# Processed by: cddbd v1.5.1PL0 Copyright (c) Steve Scherf et al.
# Submitted via: dBpowerAMP V4.0
#
DISCID=9706520a
DTITLE=McGruders - Pure Gospel
DYEAR=1900
DGENRE=Gospel
TTITLE0=It's Not Over Till It's Over
TTITLE1=I Wouldn't Be a Bit Surprised
TTITLE2=You've Got To Get Up Again
TTITLE3=His Grace Is Sufficent
TTITLE4=The Great Escape
TTITLE5=I'll Get My Reward
TTITLE6=My Faith Stands Firm
TTITLE7=We See Him Better Than Some
TTITLE8=Keep My Spirit Right
TTITLE9=I'm So Glad That The Lord Saved Me
EXTD=
EXTT0=
EXTT1=
EXTT2=
EXTT3=
EXTT4=
EXTT5=
EXTT6=
EXTT7=
EXTT8=
EXTT9=
PLAYORDER=
